<?xml version="1.0" encoding="UTF-8"?>
<svg id="Capa_1" data-name="Capa 1" xmlns="http://www.w3.org/2000/svg" viewBox="0 0 396.6 396.6">
  <defs>
    <style>
      .cls-1, .cls-2 {
        fill: #1d1d1b;
      }

      .cls-3, .cls-4 {
        fill: #f6d7e9;
      }

      .cls-3, .cls-2 {
        stroke: #1d1d1b;
        stroke-miterlimit: 10;
      }

      .cls-2 {
        stroke-width: .25px;
      }
    </style>
  </defs>
  <circle class="cls-3" cx="198.3" cy="198.3" r="197.8"/>
  <g>
    <g>
      <path class="cls-2" d="M80.65,113h52.94c11.93,0,23.28,1.37,34.02,4.09,10.74,2.73,20.16,7.38,28.26,13.94,8.1,6.57,14.53,15.39,19.31,26.47,4.77,11.09,7.16,24.9,7.16,41.43s-2.26,29.71-6.78,40.54c-4.52,10.83-10.66,19.48-18.41,25.96-7.76,6.48-16.8,11.13-27.11,13.94-10.32,2.81-21.36,4.22-33.12,4.22h-56.27v-4.35h14.58V117.6h-14.58v-4.6ZM125.4,117.6v161.65c12.28,0,22.59-1.66,30.95-4.99,8.35-3.33,15.09-8.4,20.21-15.22,5.12-6.82,8.78-15.39,11-25.7,2.21-10.32,3.32-22.46,3.32-36.45,0-11.42-1.19-22-3.58-31.72-2.39-9.72-6.01-18.12-10.87-25.19-4.86-7.07-11-12.62-18.42-16.63-7.42-4-16.16-6.01-26.22-6.01l-6.4.26Z"/>
      <path class="cls-1" d="M230.78,278.48h24.81c7.84,0,15.13-.21,21.87-.64,6.73-.42,12.57-2.05,17.52-4.86,4.94-2.81,8.86-7.29,11.77-13.43,2.9-6.14,4.35-14.92,4.35-26.34h4.35v50.39h-128.4v-4.35h12.79V117.35h-12.79v-4.35h128.14l.26,41.95h-4.35c-1.37-9.38-3.8-16.58-7.29-21.61-3.5-5.03-7.76-8.7-12.79-11-5.03-2.3-10.74-3.58-17.14-3.84-6.39-.26-13.26-.38-20.59-.38h-22.51v75.45h6.65c5.28,0,9.93-.17,13.94-.51,4-.34,7.37-1.45,10.1-3.33,2.73-1.87,4.77-4.82,6.14-8.82,1.36-4,2.13-9.59,2.3-16.75h4.09v64.45h-4.09c-.17-6.48-.81-11.64-1.92-15.47-1.11-3.84-2.69-6.73-4.73-8.7-2.05-1.96-4.52-3.24-7.42-3.84-2.9-.6-6.23-.9-9.98-.9h-15.09v78.78Z"/>
    </g>
    <polygon class="cls-4" points="211.84 174.49 217.81 192.86 237.12 192.86 221.5 204.22 227.47 222.59 211.84 211.24 196.21 222.59 202.18 204.22 186.55 192.86 205.87 192.86 211.84 174.49"/>
  </g>
</svg>